HIERARCHY
ROOT Hips
{
  OFFSET 23.6125 96.1923 -296.931
  CHANNELS 6 Xposition Yposition Zposition Zrotation Xrotation Yrotation
  JOINT ToSpine
  {
    OFFSET -2.69724 7.43032 -0.144315
    CHANNELS 3 Zrotation Xrotation Yrotation
    JOINT Spine
    {
      OFFSET -0.0310711 10.7595 1.96963
      CHANNELS 3 Zrotation Xrotation Yrotation
      JOINT Spine1
      {
        OFFSET 13.1342 3.43533 0.764692
        CHANNELS 3 Zrotation Xrotation Yrotation
        JOINT Neck
        {
          OFFSET 29.8703 7.82586 -0.130764
          CHANNELS 3 Zrotation Xrotation Yrotation
          JOINT Head
          {
            OFFSET 9.52751 0.295786 -0.907742
            CHANNELS 3 Zrotation Xrotation Yrotation
            End Site
            {
              OFFSET 16.4037 0.713936 2.7358
            }
          }
        }
        JOINT LeftShoulder
        {
          OFFSET 27.5574 4.95586 2.47156
          CHANNELS 3 Zrotation Xrotation Yrotation
          JOINT LeftArm
          {
            OFFSET 1.20734 -0.998971 20.1238
            CHANNELS 3 Zrotation Xrotation Yrotation
            JOINT LeftForeArm
            {
              OFFSET 26.8049 -0.0536703 -0.155908
              CHANNELS 3 Zrotation Xrotation Yrotation
              JOINT LeftHand
              {
                OFFSET 26.6817 0 0.320147
                CHANNELS 3 Zrotation Xrotation Yrotation
                End Site
                {
                  OFFSET 18.6119 0 0.382219
                }
              }
            }
          }
        }
        JOINT RightShoulder
        {
          OFFSET 27.5927 4.71444 -2.65209
          CHANNELS 3 Zrotation Xrotation Yrotation
          JOINT RightArm
          {
            OFFSET 2.83739 -1.17114 -18.7564
            CHANNELS 3 Zrotation Xrotation Yrotation
            JOINT RightForeArm
            {
              OFFSET 28.839 -0.0548439 1.22491
              CHANNELS 3 Zrotation Xrotation Yrotation
              JOINT RightHand
              {
                OFFSET 26.5114 0 -0.101894
                CHANNELS 3 Zrotation Xrotation Yrotation
                End Site
                {
                  OFFSET 18.2168 0 0
                }
              }
            }
          }
        }
      }
    }
  }
  JOINT LeftUpLeg
  {
    OFFSET -4.76168 -1.9167 -10.2353
    CHANNELS 3 Zrotation Xrotation Yrotation
    JOINT LeftLeg
    {
      OFFSET 2.55951 -42.0585 -8.02213
      CHANNELS 3 Zrotation Xrotation Yrotation
      JOINT LeftFoot
      {
        OFFSET 3.16357 -42.5282 -3.95426
        CHANNELS 3 Zrotation Xrotation Yrotation
        JOINT LeftToeBase
        {
          OFFSET 0.346054 -6.02161 12.8035
          CHANNELS 3 Zrotation Xrotation Yrotation
          End Site
          {
            OFFSET 0.134235 -1.35082 5.13018
          }
        }
      }
    }
  }
  JOINT RightUpLeg
  {
    OFFSET -4.94151 -1.41743 10.6446
    CHANNELS 3 Zrotation Xrotation Yrotation
    JOINT RightLeg
    {
      OFFSET -2.56294 -42.0364 -7.94377
      CHANNELS 3 Zrotation Xrotation Yrotation
      JOINT RightFoot
      {
        OFFSET -3.0952 -42.555 -4.02241
        CHANNELS 3 Zrotation Xrotation Yrotation
        JOINT RightToeBase
        {
          OFFSET -0.0828122 -6.13587 12.8035
          CHANNELS 3 Zrotation Xrotation Yrotation
          End Site
          {
            OFFSET -0.131328 -1.35082 5.13018
          }
        }
      }
    }
  }
}
MOTION
Frames:	8
Frame Time:	0.0333333
31.9598 80.7913 -23.1685 54.7355 -21.7209 -15.6327 -70.1915 0 88.8779 147.825 54.8232 -54.4604 -10.1021 19.2834 3.0046 -162.52 -4.10973 -164.424 -139.979 34.1343 -174.745 -1.5146 -19.7606 -37.3683 -77.6519 37.161 -77.7236 10.666 12.8253 -39.9329 0.420957 0.000575474 0.35866 -1.9714 7.71433 39.8686 -91.4367 -19.9803 77.194 -0.110038 -0.000289489 50.1819 0.58676 0.000330778 0.0646651 1.12281 14.7884 92.2308 -48.1953 83.8201 33.6819 -0.568882 -14.2051 -1.22028 8.52606 -18.0582 22.23 -14.3637 -7.13326 116.002 7.07089 64.5269 3.50039 -3.76377 -17.6473 1.44207 1.86445 -25.4539 -20.0265 
33.3763 80.3809 -23.4249 54.7375 -19.6002 -14.7443 -70.1915 0 88.8779 147.524 55.5185 -55.6595 -10.3923 19.4662 4.21535 -163.628 -3.04261 -163.158 -141.207 35.9569 -173.206 -1.68107 -19.7762 -39.1181 -73.6534 40.3567 -77.7724 9.26957 12.1592 -37.4312 0.420957 0.000575474 0.35866 -1.83699 7.81084 37.8103 -90.7224 -22.709 81.2327 1.65706 -1.25019 54.5206 0.58676 0.000330778 0.0646651 3.35082 15.1639 91.1132 -39.2982 83.1132 27.2978 -0.237963 -12.6832 -1.09403 8.24534 -17.698 22.4512 -14.7177 -9.6069 114.712 7.21324 65.1475 2.77267 -4.43912 -18.5127 1.46017 1.87474 -25.9932 -19.4529 
35.2503 79.8681 -23.8207 55.3463 -17.8127 -13.1762 -70.1915 0 88.8779 147.733 56.2228 -56.7044 -10.825 20.4531 3.55066 -163.476 -1.73924 -164.81 -140.367 37.2287 -172.986 -1.47922 -19.2672 -38.4974 -66.2888 44.5226 -79.7214 7.48362 10.2798 -36.0886 0.420957 0.000575474 0.35866 -1.93187 7.96246 38.5305 -89.7517 -25.1099 82.9681 5.40819 -2.76608 63.242 0.58676 0.000330778 0.0646651 5.27386 16.8159 91.0923 -32.2906 82.5483 24.6066 -0.0753682 -12.2742 -1.06332 7.89582 -17.2175 20.8042 -16.791 -12.0533 113.014 7.08212 64.8852 2.6447 -4.02499 -20.7649 1.57685 1.88564 -25.3721 -19.7779 
37.689 79.4051 -24.283 56.6519 -15.3225 -10.5577 -70.1915 0 88.8779 147.413 57.1169 -58.0193 -11.5198 21.2362 3.4836 -164.547 -0.839573 -168.18 -141.156 38.0433 -173.696 -0.820535 -17.6471 -35.671 -59.8065 49.7146 -80.3201 8.86743 11.1681 -38.5272 0.420957 0.000575474 0.35866 -1.96082 7.92287 39.0259 -87.3442 -28.8768 84.6782 10.8812 -3.28413 73.3499 0.58676 0.000330778 0.0646651 7.46165 18.9125 91.6246 -32.9769 83.109 28.5091 0.725289 -12.4607 -1.09397 6.59872 -15.5646 22.4141 -21.3801 -14.698 110.762 6.47002 63.6655 2.17143 -2.67231 -23.0599 1.78627 1.94967 -25.0977 -19.0092 
40.9848 79.625 -25.051 57.9087 -11.8894 -6.73418 -70.1915 0 88.8779 146.52 58.6495 -57.9178 -11.5268 22.0309 3.43819 -166.388 0.0355976 -171.001 -142.717 38.876 -174.734 -0.230096 -15.9797 -32.5735 -57.6205 55.4295 -76.5319 10.2017 10.2346 -45.0023 0.420957 0.000575474 0.35866 -1.78362 7.28032 38.8987 -85.1571 -33.3655 85.1975 18.4052 -2.02121 83.771 0.58676 0.000330778 0.0646651 9.28986 21.1581 93.0179 -38.1727 84.0829 35.6454 0.803982 -10.6995 -0.965624 6.43617 -15.3853 23.0369 -28.9578 -17.3745 106.534 5.05312 59.0866 2.9874 -1.63776 -23.9168 1.92487 1.93569 -26.617 -18.2562 
45.6713 80.5905 -26.9643 57.7941 -8.25137 -2.44164 -70.1915 0 88.8779 144.111 62.5788 -55.9887 -11.8298 22.7159 5.27188 -164.758 2.3861 -173.464 -143.188 40.9491 -175.068 0.0293858 -15.1746 -30.8375 -54.9499 60.2707 -72.2676 9.78144 7.85378 -51.2389 0.420957 0.000575474 0.35866 -1.59338 6.68322 38.3785 -82.128 -36.9714 84.0135 19.9765 0.98066 92.4629 0.58676 0.000330778 0.0646651 10.452 22.9588 95.3056 -51.2699 85.4724 51.3605 1.69828 -9.35273 -0.908873 5.67576 -14.176 19.9443 -39.0406 -20.2654 99.2396 3.39674 49.2457 5.03009 -0.196583 -20.9101 1.79967 2.0055 -28.0668 -16.8543 
51.0307 82.4354 -29.5692 57.7369 -5.60501 2.23366 -70.1915 0 88.8779 142.351 65.6226 -54.2564 -12.6311 23.6799 6.43675 -162.409 4.80694 -176.532 -143.989 43.1917 -174.972 0.301608 -14.2109 -28.8301 -56.6403 64.3583 -65.9498 9.36877 6.54613 -54.9962 0.420957 0.000575474 0.35866 -1.39972 6.08279 37.72 -80.362 -40.241 82.2578 26.0936 3.46673 96.7874 0.58676 0.000330778 0.0646651 8.55966 24.6278 97.6408 -58.0513 85.5423 55.5647 1.9914 -7.37697 -0.799433 7.62125 -16.8418 20.4079 -50.7241 -21.1642 88.4065 1.31352 36.8002 11.4976 2.98017 -9.50383 0.744069 1.73675 -31.9374 -18.0784 
56.4994 84.5335 -32.8173 59.0359 -4.28871 6.38604 -70.1915 0 88.8779 144.165 66.2876 -56.1618 -12.8509 24.9292 6.54176 -162.668 6.88132 -177.899 -147.249 45.91 -172.516 0.275395 -14.4542 -28.3478 -66.9818 66.7614 -55.5636 7.37869 5.15165 -54.9984 0.420957 0.000575474 0.35866 -1.31608 5.96963 36.8002 -77.8166 -42.1857 81.7603 26.7895 4.1597 97.9196 0.58676 0.000330778 0.0646651 1.99661 25.8325 100.477 -45.2836 84.3654 38.993 1.02106 -6.30772 -0.66158 8.21414 -17.6221 19.1643 -60.7633 -21.0011 74.7243 -1.76411 26.554 14.406 8.47809 5.72701 -1.82657 2.94045 -30.0429 -8.00532 
